<svg xmlns="http://www.w3.org/2000/svg" version="1.1" xmlns:xlink="http://www.w3.org/1999/xlink" width="1000" height="1000"><metadata><rdf:RDF xmlns:rdf="http://www.w3.org/1999/02/22-rdf-syntax-ns#" xmlns:dc="http://purl.org/dc/elements/1.1/"><rdf:Description><dc:creator>RealFaviconGenerator</dc:creator><dc:source>https://realfavicongenerator.net</dc:source></rdf:Description></rdf:RDF></metadata><g clip-path="url(#SvgjsClipPath1165)"><rect width="1000" height="1000" fill="#ffffff"></rect><g transform="matrix(2.331002331002331,0,0,2.331002331002331,0,0)"><svg xmlns="http://www.w3.org/2000/svg" width="429" height="429" viewBox="0 0 429 429" fill="none"><rect width="429" height="429" fill="#616161" fill-opacity="0.82"></rect><path d="M173.292 79C184.244 79 193.237 87.3846 194.204 98.085H174.901C155.572 98.085 139.902 113.754 139.901 133.084V236.753C139.901 256.083 155.571 271.753 174.901 271.753H194.292V329C194.292 340.598 184.89 350 173.292 350H138C126.402 350 117 340.598 117 329V100C117 88.402 126.402 79 138 79H173.292ZM278.57 98.085C297.9 98.085 313.57 113.755 313.57 133.085V236.753C313.57 256.083 297.9 271.753 278.57 271.753H194.292V100C194.292 99.3544 194.261 98.7157 194.204 98.085H278.57Z" fill="white"></path></svg></g></g><defs><clipPath id="SvgjsClipPath1165"><rect width="1000" height="1000" x="0" y="0" rx="300" ry="300"></rect></clipPath></defs></svg>